<?xml version="1.0" encoding="UTF-8" standalone="no"?>
<!DOCTYPE svg PUBLIC "-//W3C//DTD SVG 1.1//EN" "http://www.w3.org/Graphics/SVG/1.1/DTD/svg11.dtd">
<svg xmlns="http://www.w3.org/2000/svg" version="1.1" width="32" height="32" viewBox="0 0 416 416">
<path fill="#394fe1" d="M 105.22,387.00 Q 78.29,398.13 51.37,409.25 Q 39.90,413.99 37.59,414.36 Q 29.84,415.58 22.51,410.73 Q 20.26,409.24 18.96,406.86 Q 16.93,403.14 16.29,399.05 Q 15.82,396.03 16.70,390.98 Q 23.39,352.65 30.08,315.22 Q 30.45,313.16 29.39,311.34 Q 0.48,261.65 0.73,205.25 Q 0.77,195.32 1.83,185.29 Q 7.78,128.97 41.19,83.69 Q 66.75,49.04 105.48,27.51 Q 148.35,3.69 197.51,1.41 Q 249.27,-1.00 295.69,20.31 Q 331.67,36.83 358.98,65.65 Q 365.75,72.79 371.97,80.85 Q 415.50,137.24 415.24,209.25 Q 415.21,219.29 414.08,229.21 Q 406.83,292.85 366.01,341.66 Q 359.62,349.30 352.39,356.29 Q 298.37,408.49 223.00,414.25 Q 160.95,418.99 106.12,387.06 A 1.04,1.01 -40.5 0 0 105.22,387.00 ZM 60.29,303.75 Q 59.88,304.34 60.23,305.01 Q 61.96,308.34 61.17,311.82 Q 60.62,314.25 60.61,314.34 Q 56.01,343.01 51.41,371.08 Q 51.20,372.39 52.43,371.88 L 96.72,353.65 Q 97.64,353.27 98.65,353.24 Q 102.27,353.13 106.13,353.37 Q 108.30,353.50 109.76,354.14 Q 111.30,354.80 113.06,355.94 Q 150.76,380.20 196.26,383.42 Q 223.54,385.35 250.06,378.81 Q 286.78,369.74 316.22,346.80 Q 324.03,340.71 331.23,333.60 Q 369.78,295.50 380.28,241.21 Q 385.28,215.35 382.75,190.50 Q 377.08,134.85 341.45,92.66 Q 334.90,84.90 327.64,78.23 Q 316.51,68.00 303.77,59.71 Q 303.29,59.40 302.75,59.54 Q 298.64,56.38 294.10,53.88 Q 263.19,36.87 228.46,32.49 Q 218.60,31.25 208.51,31.16 Q 158.71,30.74 116.16,55.88 Q 107.66,60.90 99.69,67.19 Q 46.50,109.19 34.30,176.37 Q 32.50,186.32 31.97,196.22 Q 28.85,254.31 60.29,303.75 Z"/>
<path fill="#f0f0f0" d="M 302.75,59.54 Q 313.21,70.31 322.06,82.44 Q 360.19,134.75 352.19,199.77 Q 347.81,235.45 331.50,265.50 Q 314.29,297.21 287.44,317.44 Q 251.88,344.22 206.68,350.60 Q 196.36,352.06 186.81,352.77 Q 137.55,356.43 95.31,331.44 Q 77.03,320.62 60.29,303.75 Q 28.85,254.31 31.97,196.22 Q 32.50,186.32 34.30,176.37 Q 46.50,109.19 99.69,67.19 Q 107.66,60.90 116.16,55.88 Q 158.71,30.74 208.51,31.16 Q 218.60,31.25 228.46,32.49 Q 263.19,36.87 294.10,53.88 Q 298.64,56.38 302.75,59.54 ZM 227.06,243.81 Q 233.05,234.79 242.57,225.86 Q 253.42,215.68 254.39,214.58 Q 266.74,200.49 270.73,182.08 Q 272.38,174.48 271.50,166.81 Q 268.55,140.95 248.44,124.56 Q 226.17,106.42 198.25,110.82 Q 188.02,112.44 179.29,116.88 Q 162.84,125.26 152.98,141.71 Q 144.63,155.62 144.17,171.53 Q 143.97,178.38 146.26,182.59 Q 150.92,191.12 162.50,189.75 Q 172.51,188.57 175.44,178.69 Q 175.97,176.88 176.16,172.90 Q 176.33,169.31 176.88,167.16 Q 181.02,150.72 195.50,144.75 Q 204.18,141.16 213.34,142.65 Q 223.22,144.26 230.15,151.13 Q 237.74,158.67 239.48,168.46 Q 241.65,180.67 231.99,191.22 Q 223.95,200.00 216.94,206.19 Q 197.33,223.48 192.77,248.41 Q 191.62,254.66 192.55,258.60 Q 193.92,264.44 198.72,267.37 Q 204.69,271.01 212.21,269.46 Q 220.32,267.79 223.11,259.31 Q 223.47,258.24 224.22,252.09 Q 224.83,247.18 227.06,243.81 ZM 223.95,301.97 A 15.96 15.96 0.0 0 0 207.99,286.01 A 15.96 15.96 0.0 0 0 192.03,301.97 A 15.96 15.96 0.0 0 0 207.99,317.93 A 15.96 15.96 0.0 0 0 223.95,301.97 Z"/>
<path fill="#1ce7b2" d="M 302.75,59.54 Q 303.29,59.40 303.77,59.71 Q 316.51,68.00 327.64,78.23 Q 334.90,84.90 341.45,92.66 Q 377.08,134.85 382.75,190.50 Q 385.28,215.35 380.28,241.21 Q 369.78,295.50 331.23,333.60 Q 324.03,340.71 316.22,346.80 Q 286.78,369.74 250.06,378.81 Q 223.54,385.35 196.26,383.42 Q 150.76,380.20 113.06,355.94 Q 111.30,354.80 109.76,354.14 Q 108.30,353.50 106.13,353.37 Q 102.27,353.13 98.65,353.24 Q 97.64,353.27 96.72,353.65 L 52.43,371.88 Q 51.20,372.39 51.41,371.08 Q 56.01,343.01 60.61,314.34 Q 60.62,314.25 61.17,311.82 Q 61.96,308.34 60.23,305.01 Q 59.88,304.34 60.29,303.75 Q 77.03,320.62 95.31,331.44 Q 137.55,356.43 186.81,352.77 Q 196.36,352.06 206.68,350.60 Q 251.88,344.22 287.44,317.44 Q 314.29,297.21 331.50,265.50 Q 347.81,235.45 352.19,199.77 Q 360.19,134.75 322.06,82.44 Q 313.21,70.31 302.75,59.54 Z"/>
<path fill="#394fe1" d="M 227.06,243.81 Q 224.83,247.18 224.22,252.09 Q 223.47,258.24 223.11,259.31 Q 220.32,267.79 212.21,269.46 Q 204.69,271.01 198.72,267.37 Q 193.92,264.44 192.55,258.60 Q 191.62,254.66 192.77,248.41 Q 197.33,223.48 216.94,206.19 Q 223.95,200.00 231.99,191.22 Q 241.65,180.67 239.48,168.46 Q 237.74,158.67 230.15,151.13 Q 223.22,144.26 213.34,142.65 Q 204.18,141.16 195.50,144.75 Q 181.02,150.72 176.88,167.16 Q 176.33,169.31 176.16,172.90 Q 175.97,176.88 175.44,178.69 Q 172.51,188.57 162.50,189.75 Q 150.92,191.12 146.26,182.59 Q 143.97,178.38 144.17,171.53 Q 144.63,155.62 152.98,141.71 Q 162.84,125.26 179.29,116.88 Q 188.02,112.44 198.25,110.82 Q 226.17,106.42 248.44,124.56 Q 268.55,140.95 271.50,166.81 Q 272.38,174.48 270.73,182.08 Q 266.74,200.49 254.39,214.58 Q 253.42,215.68 242.57,225.86 Q 233.05,234.79 227.06,243.81 Z"/>
<circle fill="#394fe1" cx="207.99" cy="301.97" r="15.96"/>
</svg>
